<svg width="25" height="19" viewBox="0 0 25 19" fill="none" xmlns="http://www.w3.org/2000/svg">
<path fill-rule="evenodd" clip-rule="evenodd" d="M0.656959 0.67196C0.768144 0.562098 0.918152 0.500488 1.07446 0.500488C1.23077 0.500488 1.38077 0.562098 1.49196 0.67196L10.321 9.09996C10.3773 9.15024 10.4224 9.21187 10.4533 9.2808C10.4842 9.34974 10.5002 9.42442 10.5002 9.49996C10.5002 9.5755 10.4842 9.65018 10.4533 9.71912C10.4224 9.78805 10.3773 9.84968 10.321 9.89996L1.52096 18.328C1.4095 18.4372 1.26 18.4988 1.10396 18.5C0.947836 18.4993 0.798177 18.4375 0.686959 18.328C0.630588 18.2777 0.585481 18.2161 0.554596 18.1471C0.523711 18.0782 0.507745 18.0035 0.507745 17.928C0.507745 17.8524 0.523711 17.7777 0.554596 17.7088C0.585481 17.6399 0.630588 17.5782 0.686959 17.528L9.03796 9.49896L0.654959 1.46996C0.555019 1.3608 0.499753 1.21807 0.500124 1.07007C0.500494 0.922072 0.556473 0.779618 0.656959 0.67096V0.67196ZM14.657 0.67196C14.7681 0.562098 14.9182 0.500488 15.0745 0.500488C15.2308 0.500488 15.3808 0.562098 15.492 0.67196L24.321 9.09996C24.3773 9.15024 24.4224 9.21187 24.4533 9.2808C24.4842 9.34974 24.5002 9.42442 24.5002 9.49996C24.5002 9.5755 24.4842 9.65018 24.4533 9.71912C24.4224 9.78805 24.3773 9.84968 24.321 9.89996L15.521 18.328C15.4095 18.4372 15.26 18.4988 15.104 18.5C14.9478 18.4993 14.7982 18.4375 14.687 18.328C14.6306 18.2777 14.5855 18.2161 14.5546 18.1471C14.5237 18.0782 14.5077 18.0035 14.5077 17.928C14.5077 17.8524 14.5237 17.7777 14.5546 17.7088C14.5855 17.6399 14.6306 17.5782 14.687 17.528L23.038 9.49896L14.655 1.46996C14.555 1.3608 14.4998 1.21807 14.5001 1.07007C14.5005 0.922072 14.5565 0.779618 14.657 0.67096V0.67196Z" fill="black"/>
</svg>
