<svg width="78" height="61" viewBox="0 0 78 61" fill="none" xmlns="http://www.w3.org/2000/svg">
<path fill-rule="evenodd" clip-rule="evenodd" d="M44.8132 42.9449L32.1038 25.4675L45.5681 42.3745C45.7229 42.5667 45.6817 42.8544 45.4755 43.0167C45.2702 43.1781 44.979 43.1524 44.825 42.9612C44.8206 42.9562 44.8166 42.9507 44.8132 42.9449Z" fill="#010202"/>
<path d="M44.8974 42.2542C45.6009 43.1525 46.2489 51.0407 46.2489 51.0407C46.2489 51.0407 50.8604 45.8252 51.9005 38.5116C52.9389 31.198 51.5218 30.2203 50.2915 26.5059C49.0612 22.7915 43.8707 18.0029 41.2149 16.6879C39.2996 15.7401 33.1667 13.5849 29.8444 12.4398C28.6477 12.0299 27.2988 12.7062 26.8738 13.9221C24.9013 19.5732 24.5268 25.6179 26.1535 31.1827C27.1187 34.4821 28.7782 37.5988 31.6166 39.1256C31.6166 39.1256 38.2275 42.4216 42.6295 41.5882C47.0298 40.7548 46.2203 49.1536 46.2203 49.1536" stroke="#010202" stroke-width="0.5" stroke-linecap="round" stroke-linejoin="round"/>
<path fill-rule="evenodd" clip-rule="evenodd" d="M39.9257 58.2987L36.5479 58.8896L33.4073 57.4961L29.9891 57.2493L27.2685 55.1334L24.0068 54.0634L21.8651 51.3481L18.9509 49.5182L17.5111 46.3622L15.1128 43.8774L14.4598 40.4618L12.7178 37.4672L12.8887 33.9936L11.9033 30.6626L12.8878 27.3316L12.7178 23.8579L14.4598 20.8625L15.1128 17.4486L17.5111 14.9638L18.9501 11.807L21.8651 9.97625L24.0068 7.26088L27.2685 6.19181L29.9891 4.07587L33.4073 3.8291L36.5479 2.43555L39.9257 3.02644L43.3035 2.43555L46.4441 3.8291L49.8623 4.07587L52.5829 6.19181L55.8446 7.26173L57.9863 9.9771L60.9005 11.807L62.3403 14.963L64.7386 17.4478L65.3916 20.8633L67.1335 23.8579L66.9627 27.3316L67.9481 30.6626L66.9636 33.9936L67.1335 37.4672L65.3916 40.4627L64.7386 43.8765L62.3403 46.3614L60.9013 49.5182L57.9863 51.3489L55.8446 54.0643L52.5829 55.1334L49.8623 57.2493L46.4441 57.4961L43.3035 58.8896L39.9257 58.2987Z" stroke="black" stroke-width="0.5"/>
</svg>
