<svg width="78" height="61" viewBox="0 0 78 61" fill="none" xmlns="http://www.w3.org/2000/svg">
<path fill-rule="evenodd" clip-rule="evenodd" d="M47.5056 47.3887L58.4922 20.5229L48.6241 47.8199C48.5973 47.8939 48.5563 47.9619 48.5032 48.0201C48.4502 48.0782 48.3862 48.1253 48.315 48.1587C48.2437 48.1921 48.1666 48.2112 48.088 48.2148C48.0094 48.2184 47.9309 48.2065 47.8569 48.1797C47.7829 48.153 47.7149 48.1119 47.6567 48.0589C47.5986 48.0059 47.5515 47.9419 47.5181 47.8707C47.4847 47.7994 47.4656 47.7223 47.462 47.6437C47.4584 47.5651 47.4703 47.4865 47.4971 47.4125L47.5056 47.3887Z" fill="#010202"/>
<path d="M33.394 48.4587C33.394 48.4587 23.802 46.0856 20.3838 42.1925C16.9675 38.2974 11.4571 32.7908 11.9321 9.52403C11.9321 9.52403 15.5416 5.82123 34.7238 16.1719M48.2938 46.9709C47.7226 48.3958 49.5369 58.7142 49.5369 58.7142C49.5369 58.7142 42.1304 53.872 38.4276 44.9453C34.7229 36.0186 36.1488 34.2148 36.4334 28.9918C36.717 23.7679 41.5259 15.6179 44.3625 12.8956C46.4062 10.9328 53.2483 5.77553 56.9625 3.00843C57.2788 2.77328 57.6396 2.60505 58.0231 2.51401C58.4065 2.42296 58.8045 2.41101 59.1927 2.47889C59.5809 2.54677 59.9512 2.69305 60.2809 2.9088C60.6107 3.12455 60.8931 3.40525 61.1108 3.73376C65.4152 10.1684 67.8767 17.7387 67.7159 25.4794C67.6207 30.0703 66.6069 34.6993 63.6171 37.7615C63.6171 37.7615 56.5656 44.5655 50.8667 45.2299C45.1697 45.8943 48.9496 56.2945 48.9496 56.2945L48.2938 46.9709Z" stroke="#010202" stroke-width="0.5" stroke-linecap="round" stroke-linejoin="round"/>
<path fill-rule="evenodd" clip-rule="evenodd" d="M23.3451 19.8471C24.7547 21.244 26.1013 22.7031 27.381 24.22C28.0226 24.9786 28.7032 25.7173 29.2096 26.5902C29.6741 27.4659 30.2224 28.3949 30.2071 29.461C30.207 29.4706 30.2037 29.4798 30.1977 29.4873C30.1917 29.4947 30.1834 29.5 30.1741 29.5021C30.1648 29.5043 30.1551 29.5034 30.1464 29.4994C30.1377 29.4954 30.1306 29.4886 30.1262 29.4801L30.1234 29.4725C29.6741 28.5958 29.0811 27.8447 28.4957 27.0642C27.916 26.2837 27.402 25.4479 26.8404 24.6398C25.686 23.0371 24.4994 21.4579 23.2813 19.9032C23.2777 19.8988 23.2751 19.8938 23.2736 19.8883C23.272 19.8829 23.2716 19.8772 23.2723 19.8716C23.273 19.866 23.2749 19.8606 23.2777 19.8557C23.2806 19.8509 23.2844 19.8466 23.2889 19.8433C23.2971 19.8368 23.3073 19.8336 23.3177 19.8343C23.3281 19.835 23.3378 19.8396 23.3451 19.8471Z" fill="#010202"/>
</svg>
